<?xml version="1.0" encoding="UTF-8"?>
<svg width="900" height="180" viewBox="0 0 900 180" fill="none" xmlns="http://www.w3.org/2000/svg" role="img" aria-label="RunwayCtrl wordmark">
  <defs>
    <linearGradient id="split" gradientUnits="userSpaceOnUse" x1="0" y1="20" x2="0" y2="70">
      <stop offset="50%" stop-color="#F3F4F6"/>
      <stop offset="50%" stop-color="#6B7280"/>
    </linearGradient>
  </defs>
  <g transform="translate(60, 10) scale(2)" fill="url(#split)" fill-rule="evenodd">
    <path d="M0,20 h30 v20 h-10 v10 h-10 v20 h-10 Z M10,30 h10 v10 h-10 Z" transform="translate(0, 0)"/>
    <path d="M0,20 h10 v40 h10 v-40 h10 v50 h-30 Z" transform="translate(40, 0)"/>
    <path d="M0,20 h30 v50 h-10 v-40 h-10 v40 h-10 Z" transform="translate(80, 0)"/>
    <path d="M0,20 h10 v40 h10 v-10 h10 v10 h10 v-40 h10 v50 h-40 v-10 h-10 Z" transform="translate(120, 0)"/>
    <path d="M0,20 h30 v50 h-30 v-30 h20 v-10 h-20 Z M10,50 h10 v10 h-10 Z" transform="translate(180, 0)"/>
    <path d="M0,20 h10 v20 h10 v-20 h10 v60 h-30 v-10 h20 v-20 h-20 Z" transform="translate(220, 0)"/>
    <path d="M0,20 h30 v10 h-20 v30 h20 v10 h-30 Z" transform="translate(260, 0)"/>
    <path d="M10,10 h10 v10 h10 v10 h-10 v30 h10 v10 h-20 v-40 h-10 v-10 h10 Z" transform="translate(300, 0)"/>
    <path d="M0,20 h30 v20 h-10 v10 h-10 v20 h-10 Z M10,30 h10 v10 h-10 Z" transform="translate(340, 0)"/>
    <path d="M0,0 h10 v70 h-10 Z" transform="translate(380, 0)"/>
  </g>
</svg>
